<svg width="88" height="88" viewBox="0 0 88 88" fill="none" xmlns="http://www.w3.org/2000/svg">
<path d="M22 22C34.1503 9.84974 53.8497 9.84974 66 22V22C78.1503 34.1503 78.1503 53.8497 66 66L50.55 81.45C46.9326 85.0674 41.0674 85.0674 37.45 81.45L22 66C9.84975 53.8498 9.84974 34.1503 22 22V22Z" fill="white"/>
<ellipse cx="43.8477" cy="42.8548" rx="14.0733" ry="17.0504" stroke="#321D0B" stroke-width="2.89676"/>
<path d="M43.92 25.8044C44.5501 25.9107 45.9522 27.1432 46.5193 31.2233C47.2282 36.3234 36.8309 44.611 41.0843 54.4924" stroke="#321D0B" stroke-width="2.89676"/>
<path d="M42.2239 56.6575C43.3065 58.1009 46.1211 60.5547 48.7193 58.8226" stroke="#321D0B" stroke-width="2.89676"/>
</svg>
