<svg width="38" height="38" viewBox="0 0 38 38" fill="none" xmlns="http://www.w3.org/2000/svg">
<g clip-path="url(#clip0_44_1432)">
<path d="M24.3295 5.44348L29.4136 14.25H34.8333V17.4166H32.9856L31.787 31.7981C31.754 32.1937 31.5736 32.5626 31.2816 32.8315C30.9895 33.1004 30.607 33.2498 30.21 33.25H7.78999C7.39296 33.2498 7.01051 33.1004 6.71842 32.8315C6.42634 32.5626 6.24594 32.1937 6.21299 31.7981L5.01282 17.4166H3.16666V14.25H8.58482L13.6705 5.44348L16.4128 7.02681L12.2423 14.25H25.7561L21.5872 7.02681L24.3295 5.44348V5.44348ZM29.8078 17.4166H8.19057L9.24666 30.0833H28.7517L29.8078 17.4166ZM20.5833 20.5833V26.9166H17.4167V20.5833H20.5833ZM14.25 20.5833V26.9166H11.0833V20.5833H14.25ZM26.9167 20.5833V26.9166H23.75V20.5833H26.9167Z" fill="#321D0B"/>
</g>
<defs>
<clipPath id="clip0_44_1432">
<rect width="38" height="38" fill="white"/>
</clipPath>
</defs>
</svg>
