<svg width="44" height="28" viewBox="0 0 44 28" fill="none" xmlns="http://www.w3.org/2000/svg">
<path d="M23.792 16.436C23.792 17.036 23.642 17.6 23.342 18.128C23.054 18.656 22.622 19.1 22.046 19.46C21.482 19.82 20.81 20.036 20.03 20.108V21.566H18.86V20.108C17.732 20 16.82 19.646 16.124 19.046C15.428 18.446 15.08 17.654 15.08 16.67H17.276C17.312 17.138 17.462 17.528 17.726 17.84C17.99 18.14 18.368 18.332 18.86 18.416V14.456C18.056 14.252 17.402 14.048 16.898 13.844C16.394 13.628 15.962 13.292 15.602 12.836C15.254 12.38 15.08 11.756 15.08 10.964C15.08 9.968 15.428 9.146 16.124 8.498C16.82 7.838 17.732 7.454 18.86 7.346V5.888H20.03V7.346C21.086 7.442 21.932 7.778 22.568 8.354C23.216 8.918 23.582 9.698 23.666 10.694H21.47C21.434 10.322 21.29 9.992 21.038 9.704C20.786 9.404 20.45 9.2 20.03 9.092V12.98C20.834 13.172 21.488 13.376 21.992 13.592C22.496 13.796 22.922 14.126 23.27 14.582C23.618 15.026 23.792 15.644 23.792 16.436ZM17.168 10.856C17.168 11.348 17.312 11.732 17.6 12.008C17.9 12.284 18.32 12.506 18.86 12.674V9.038C18.344 9.098 17.93 9.284 17.618 9.596C17.318 9.908 17.168 10.328 17.168 10.856ZM20.03 18.416C20.558 18.332 20.972 18.122 21.272 17.786C21.572 17.438 21.722 17.024 21.722 16.544C21.722 16.064 21.572 15.692 21.272 15.428C20.984 15.152 20.57 14.93 20.03 14.762V18.416Z" fill="#FF9314"/>
<rect x="0.5" y="0.5" width="43" height="27" rx="4.5" stroke="#FF9314"/>
</svg>
