<svg width="156" height="92" viewBox="0 0 156 92" fill="none" xmlns="http://www.w3.org/2000/svg">
<path d="M17.3906 37.8906C14.9531 37.8906 12.6719 37.5 10.5469 36.7188C8.42188 35.9219 6.57031 34.7734 4.99219 33.2734C3.44531 31.8047 2.22656 29.9922 1.33594 27.8359C0.445312 25.6641 0 23.2812 0 20.6875C0 18.1094 0.445312 15.7266 1.33594 13.5391C2.24219 11.3359 3.50781 9.42969 5.13281 7.82031C6.72656 6.24219 8.64062 5.02344 10.875 4.16406C13.1094 3.28906 15.5 2.85156 18.0469 2.85156C19.8906 2.85156 21.5703 3.07812 23.0859 3.53125C24.6016 3.96875 25.8828 4.46875 26.9297 5.03125L28.3828 3.74219H30.4219L30.6328 15.8828H28.5703C27.3984 12.1797 25.9922 9.46094 24.3516 7.72656C22.7109 5.99219 20.7109 5.125 18.3516 5.125C15.4141 5.125 13.1797 6.42188 11.6484 9.01562C10.1172 11.5938 9.35156 15.2188 9.35156 19.8906C9.35156 22.5312 9.60938 24.7891 10.125 26.6641C10.6562 28.5234 11.3438 30.0234 12.1875 31.1641C13.0938 32.3516 14.1641 33.2266 15.3984 33.7891C16.6328 34.3359 18 34.6094 19.5 34.6094C21.6875 34.6094 23.6328 34.0156 25.3359 32.8281C27.0547 31.6406 28.6172 29.8438 30.0234 27.4375L32.0391 28.6562C31.3672 30.0312 30.6016 31.2656 29.7422 32.3594C28.8828 33.4375 27.8906 34.3672 26.7656 35.1484C25.5312 36.0078 24.1641 36.6797 22.6641 37.1641C21.1797 37.6484 19.4219 37.8906 17.3906 37.8906Z" fill="white"/>
<path d="M57.9844 16.5156C59.1406 17.5938 60.0234 18.8828 60.6328 20.3828C61.2422 21.8828 61.5469 23.5078 61.5469 25.2578C61.5469 26.9922 61.2422 28.6328 60.6328 30.1797C60.0391 31.7109 59.1641 33.0234 58.0078 34.1172C56.7734 35.2891 55.2969 36.1875 53.5781 36.8125C51.875 37.4375 49.9219 37.75 47.7188 37.75C45.8125 37.75 44.0547 37.4766 42.4453 36.9297C40.8516 36.3828 39.4375 35.5625 38.2031 34.4688C37.0156 33.4219 36.0781 32.1328 35.3906 30.6016C34.7031 29.0547 34.3594 27.3281 34.3594 25.4219C34.3594 23.5469 34.6562 21.8828 35.25 20.4297C35.8594 18.9609 36.7656 17.6562 37.9688 16.5156C39.125 15.4219 40.5469 14.5781 42.2344 13.9844C43.9375 13.375 45.8359 13.0703 47.9297 13.0703C50.1172 13.0703 52.0391 13.375 53.6953 13.9844C55.3672 14.5781 56.7969 15.4219 57.9844 16.5156ZM51.9844 32.7578C52.3281 31.8828 52.5781 30.8203 52.7344 29.5703C52.9062 28.3203 52.9922 26.8672 52.9922 25.2109C52.9922 24.1172 52.9141 22.8672 52.7578 21.4609C52.6016 20.0547 52.3672 18.9453 52.0547 18.1328C51.6797 17.1484 51.1562 16.375 50.4844 15.8125C49.8281 15.25 48.9922 14.9688 47.9766 14.9688C46.8672 14.9688 45.9766 15.2734 45.3047 15.8828C44.6484 16.4922 44.1406 17.2812 43.7812 18.25C43.4531 19.1406 43.2266 20.1875 43.1016 21.3906C42.9766 22.5781 42.9141 23.8203 42.9141 25.1172C42.9141 26.8203 42.9688 28.2344 43.0781 29.3594C43.1875 30.4688 43.4531 31.5859 43.875 32.7109C44.2344 33.6797 44.75 34.4453 45.4219 35.0078C46.0938 35.5703 46.9453 35.8516 47.9766 35.8516C48.9141 35.8516 49.7188 35.5938 50.3906 35.0781C51.0625 34.5469 51.5938 33.7734 51.9844 32.7578Z" fill="white"/>
<path d="M86.7422 4.67969C86.7422 5.07031 86.6797 5.5 86.5547 5.96875C86.4297 6.4375 86.2266 6.83594 85.9453 7.16406C85.6172 7.55469 85.25 7.85156 84.8438 8.05469C84.4375 8.25781 83.8281 8.35938 83.0156 8.35938C81.7812 8.35938 80.8125 7.92969 80.1094 7.07031C79.4062 6.21094 78.6562 4.78125 77.8594 2.78125C77.2344 3.04688 76.7266 3.73438 76.3359 4.84375C75.9453 5.95312 75.75 8.33594 75.75 11.9922V13.8438H82.2188V16.375H75.7969V32.5234C75.7969 33.1328 75.9375 33.6094 76.2188 33.9531C76.5 34.2812 76.8672 34.5234 77.3203 34.6797C77.6953 34.8047 78.1875 34.9297 78.7969 35.0547C79.4062 35.1641 79.9531 35.2422 80.4375 35.2891V37H64.6172V35.2891C65.0234 35.2578 65.4141 35.2188 65.7891 35.1719C66.1797 35.125 66.5234 35.0469 66.8203 34.9375C67.3203 34.75 67.6562 34.4844 67.8281 34.1406C68.0156 33.7812 68.1094 33.3125 68.1094 32.7344V16.375H63.3516V13.8438H68.1094C68.1094 12.1719 68.3516 10.5547 68.8359 8.99219C69.3203 7.41406 70.0703 6.00781 71.0859 4.77344C72.0703 3.55469 73.3672 2.57031 74.9766 1.82031C76.5859 1.07031 78.4766 0.695312 80.6484 0.695312C82.5859 0.695312 84.0859 1.0625 85.1484 1.79688C86.2109 2.53125 86.7422 3.49219 86.7422 4.67969Z" fill="white"/>
<path d="M105.633 4.67969C105.633 5.07031 105.57 5.5 105.445 5.96875C105.32 6.4375 105.117 6.83594 104.836 7.16406C104.508 7.55469 104.141 7.85156 103.734 8.05469C103.328 8.25781 102.719 8.35938 101.906 8.35938C100.672 8.35938 99.7031 7.92969 99 7.07031C98.2969 6.21094 97.5469 4.78125 96.75 2.78125C96.125 3.04688 95.6172 3.73438 95.2266 4.84375C94.8359 5.95312 94.6406 8.33594 94.6406 11.9922V13.8438H101.109V16.375H94.6875V32.5234C94.6875 33.1328 94.8281 33.6094 95.1094 33.9531C95.3906 34.2812 95.7578 34.5234 96.2109 34.6797C96.5859 34.8047 97.0781 34.9297 97.6875 35.0547C98.2969 35.1641 98.8438 35.2422 99.3281 35.2891V37H83.5078V35.2891C83.9141 35.2578 84.3047 35.2188 84.6797 35.1719C85.0703 35.125 85.4141 35.0469 85.7109 34.9375C86.2109 34.75 86.5469 34.4844 86.7188 34.1406C86.9062 33.7812 87 33.3125 87 32.7344V16.375H82.2422V13.8438H87C87 12.1719 87.2422 10.5547 87.7266 8.99219C88.2109 7.41406 88.9609 6.00781 89.9766 4.77344C90.9609 3.55469 92.2578 2.57031 93.8672 1.82031C95.4766 1.07031 97.3672 0.695312 99.5391 0.695312C101.477 0.695312 102.977 1.0625 104.039 1.79688C105.102 2.53125 105.633 3.49219 105.633 4.67969Z" fill="white"/>
<path d="M127.547 31.3984C127 32.2891 126.336 33.1328 125.555 33.9297C124.789 34.7109 123.914 35.3828 122.93 35.9453C121.883 36.5391 120.82 36.9844 119.742 37.2812C118.68 37.5938 117.453 37.75 116.062 37.75C113.75 37.75 111.75 37.4219 110.062 36.7656C108.391 36.1094 107.008 35.2266 105.914 34.1172C104.82 33.0078 104 31.7031 103.453 30.2031C102.922 28.6875 102.656 27.0469 102.656 25.2812C102.656 23.6875 102.945 22.1641 103.523 20.7109C104.117 19.2422 104.953 17.9375 106.031 16.7969C107.094 15.6875 108.43 14.7891 110.039 14.1016C111.664 13.4141 113.477 13.0703 115.477 13.0703C117.664 13.0703 119.461 13.3359 120.867 13.8672C122.273 14.3984 123.438 15.1328 124.359 16.0703C125.25 16.9609 125.898 18.0156 126.305 19.2344C126.711 20.4375 126.914 21.7031 126.914 23.0312V24.5547H111.07C111.07 27.7578 111.688 30.1953 112.922 31.8672C114.156 33.5391 116.117 34.375 118.805 34.375C120.273 34.375 121.594 33.9766 122.766 33.1797C123.938 32.3672 124.938 31.3438 125.766 30.1094L127.547 31.3984ZM118.594 22.4922C118.594 21.5547 118.547 20.5938 118.453 19.6094C118.359 18.625 118.195 17.8203 117.961 17.1953C117.695 16.4609 117.328 15.9062 116.859 15.5312C116.406 15.1562 115.828 14.9688 115.125 14.9688C113.922 14.9688 112.961 15.5781 112.242 16.7969C111.523 18.0156 111.133 19.9453 111.07 22.5859L118.594 22.4922Z" fill="white"/>
<path d="M155.016 31.3984C154.469 32.2891 153.805 33.1328 153.023 33.9297C152.258 34.7109 151.383 35.3828 150.398 35.9453C149.352 36.5391 148.289 36.9844 147.211 37.2812C146.148 37.5938 144.922 37.75 143.531 37.75C141.219 37.75 139.219 37.4219 137.531 36.7656C135.859 36.1094 134.477 35.2266 133.383 34.1172C132.289 33.0078 131.469 31.7031 130.922 30.2031C130.391 28.6875 130.125 27.0469 130.125 25.2812C130.125 23.6875 130.414 22.1641 130.992 20.7109C131.586 19.2422 132.422 17.9375 133.5 16.7969C134.562 15.6875 135.898 14.7891 137.508 14.1016C139.133 13.4141 140.945 13.0703 142.945 13.0703C145.133 13.0703 146.93 13.3359 148.336 13.8672C149.742 14.3984 150.906 15.1328 151.828 16.0703C152.719 16.9609 153.367 18.0156 153.773 19.2344C154.18 20.4375 154.383 21.7031 154.383 23.0312V24.5547H138.539C138.539 27.7578 139.156 30.1953 140.391 31.8672C141.625 33.5391 143.586 34.375 146.273 34.375C147.742 34.375 149.062 33.9766 150.234 33.1797C151.406 32.3672 152.406 31.3438 153.234 30.1094L155.016 31.3984ZM146.062 22.4922C146.062 21.5547 146.016 20.5938 145.922 19.6094C145.828 18.625 145.664 17.8203 145.43 17.1953C145.164 16.4609 144.797 15.9062 144.328 15.5312C143.875 15.1562 143.297 14.9688 142.594 14.9688C141.391 14.9688 140.43 15.5781 139.711 16.7969C138.992 18.0156 138.602 19.9453 138.539 22.5859L146.062 22.4922Z" fill="white"/>
<path d="M79.625 55.4453C80.7812 56.5234 81.6641 57.8125 82.2734 59.3125C82.8828 60.8125 83.1875 62.4375 83.1875 64.1875C83.1875 65.9219 82.8828 67.5625 82.2734 69.1094C81.6797 70.6406 80.8047 71.9531 79.6484 73.0469C78.4141 74.2188 76.9375 75.1172 75.2188 75.7422C73.5156 76.3672 71.5625 76.6797 69.3594 76.6797C67.4531 76.6797 65.6953 76.4062 64.0859 75.8594C62.4922 75.3125 61.0781 74.4922 59.8438 73.3984C58.6562 72.3516 57.7188 71.0625 57.0312 69.5312C56.3438 67.9844 56 66.2578 56 64.3516C56 62.4766 56.2969 60.8125 56.8906 59.3594C57.5 57.8906 58.4062 56.5859 59.6094 55.4453C60.7656 54.3516 62.1875 53.5078 63.875 52.9141C65.5781 52.3047 67.4766 52 69.5703 52C71.7578 52 73.6797 52.3047 75.3359 52.9141C77.0078 53.5078 78.4375 54.3516 79.625 55.4453ZM73.625 71.6875C73.9688 70.8125 74.2188 69.75 74.375 68.5C74.5469 67.25 74.6328 65.7969 74.6328 64.1406C74.6328 63.0469 74.5547 61.7969 74.3984 60.3906C74.2422 58.9844 74.0078 57.875 73.6953 57.0625C73.3203 56.0781 72.7969 55.3047 72.125 54.7422C71.4688 54.1797 70.6328 53.8984 69.6172 53.8984C68.5078 53.8984 67.6172 54.2031 66.9453 54.8125C66.2891 55.4219 65.7812 56.2109 65.4219 57.1797C65.0938 58.0703 64.8672 59.1172 64.7422 60.3203C64.6172 61.5078 64.5547 62.75 64.5547 64.0469C64.5547 65.75 64.6094 67.1641 64.7188 68.2891C64.8281 69.3984 65.0938 70.5156 65.5156 71.6406C65.875 72.6094 66.3906 73.375 67.0625 73.9375C67.7344 74.5 68.5859 74.7812 69.6172 74.7812C70.5547 74.7812 71.3594 74.5234 72.0312 74.0078C72.7031 73.4766 73.2344 72.7031 73.625 71.6875Z" fill="white"/>
<path d="M84.6875 82.7031C84.375 83.5625 83.9531 84.4453 83.4219 85.3516C82.9062 86.2578 82.3281 87.0625 81.6875 87.7656C80.8906 88.6406 80.0234 89.3438 79.0859 89.875C78.1641 90.3906 77.1797 90.6484 76.1328 90.6484C74.9453 90.6484 73.8594 90.4453 72.875 90.0391C71.9062 89.6172 70.9688 89.1406 70.0625 88.6094C69.3438 88.1719 68.5156 87.7188 67.5781 87.25C66.6406 86.7812 65.8047 86.5469 65.0703 86.5469C64.0391 86.5469 63.1406 86.9219 62.375 87.6719C61.6094 88.4062 60.875 89.5859 60.1719 91.2109L57.7344 90.2266C57.9688 89.5391 58.3359 88.7344 58.8359 87.8125C59.3516 86.8906 59.9844 86.0078 60.7344 85.1641C61.4375 84.3672 62.2656 83.6875 63.2188 83.125C64.1875 82.5625 65.2109 82.2812 66.2891 82.2812C67.5703 82.2812 68.7031 82.5078 69.6875 82.9609C70.6875 83.3984 71.5938 83.8594 72.4062 84.3438C73.2344 84.8438 74.0469 85.3125 74.8438 85.75C75.6562 86.1719 76.4922 86.3828 77.3516 86.3828C78.4453 86.3828 79.375 85.9766 80.1406 85.1641C80.9062 84.3359 81.6094 83.1875 82.25 81.7188L84.6875 82.7031Z" fill="white"/>
<path d="M45.1562 56.5C44.7188 56.5469 44.0938 56.6328 43.2812 56.7578C42.4688 56.8828 41.7344 57.1875 41.0781 57.6719C40.5 58.0938 40.0859 58.8203 39.8359 59.8516C39.6016 60.8672 39.4844 62.3672 39.4844 64.3516V88.1172H35.3125L14.5938 62.4062V78.0156C14.5938 79.9531 14.7188 81.4297 14.9688 82.4453C15.2344 83.4453 15.6562 84.1797 16.2344 84.6484C16.6562 84.9922 17.3281 85.2969 18.25 85.5625C19.1719 85.8281 19.9062 86.0078 20.4531 86.1016V87.9297H6.15625V86.1016C6.76562 86.0547 7.46094 85.9453 8.24219 85.7734C9.03906 85.5859 9.70312 85.3047 10.2344 84.9297C10.8438 84.4766 11.2578 83.7969 11.4766 82.8906C11.7109 81.9688 11.8281 80.4297 11.8281 78.2734V62.5234C11.8281 61.7422 11.7031 61.0078 11.4531 60.3203C11.2188 59.6172 10.8438 59.0156 10.3281 58.5156C9.78125 57.9844 9.14844 57.5703 8.42969 57.2734C7.72656 56.9609 6.92188 56.7188 6.01562 56.5469V54.6719H18.5312L36.7188 77.1719V64.5859C36.7188 62.5859 36.5859 61.1016 36.3203 60.1328C36.0547 59.1484 35.6328 58.4219 35.0547 57.9531C34.6016 57.5938 33.9297 57.2891 33.0391 57.0391C32.1484 56.7734 31.4297 56.5938 30.8828 56.5V54.6719H45.1562V56.5Z" fill="white"/>
<path d="M150.184 56.5469C149.7 56.5938 149.216 56.7031 148.731 56.875C148.247 57.0312 147.77 57.2344 147.302 57.4844C146.583 57.8906 146.067 58.3359 145.755 58.8203C145.458 59.3047 145.184 59.8906 144.934 60.5781C144.075 62.9531 142.747 66.7578 140.95 71.9922C139.169 77.2266 137.309 82.6641 135.372 88.3047H130.661L121.872 63.5781L113.95 88.3047H109.239C106.63 80.7109 104.63 74.8672 103.239 70.7734C101.848 66.6641 100.677 63.2188 99.7234 60.4375C99.4266 59.5938 99.0906 58.9844 98.7156 58.6094C98.3406 58.2188 97.8562 57.8281 97.2625 57.4375C96.8406 57.1562 96.3875 56.9531 95.9031 56.8281C95.4344 56.6875 94.8875 56.5781 94.2625 56.5V54.6719H112.005V56.4531C110.958 56.5781 110.177 56.7031 109.661 56.8281C109.145 56.9375 108.739 57.0547 108.442 57.1797C108.161 57.3047 107.989 57.4375 107.927 57.5781C107.864 57.7188 107.833 57.8438 107.833 57.9531C107.833 58.1719 107.856 58.3828 107.903 58.5859C107.966 58.7891 108.028 59.0234 108.091 59.2891C108.466 60.5078 109.223 62.8203 110.364 66.2266C111.505 69.6328 112.911 73.8594 114.583 78.9062L122.153 54.6719H127.122L135.911 79.6562C137.208 75.6406 138.239 72.3594 139.005 69.8125C139.786 67.2656 140.442 65.0859 140.973 63.2734C141.286 62.1641 141.536 61.2344 141.723 60.4844C141.911 59.7344 142.005 59.0859 142.005 58.5391C142.005 58.2109 141.848 57.9297 141.536 57.6953C141.239 57.4609 140.833 57.2578 140.317 57.0859C139.88 56.9453 139.309 56.8359 138.606 56.7578C137.919 56.6641 137.317 56.5938 136.802 56.5469V54.6719H150.184V56.5469Z" fill="white"/>
</svg>
