<svg width="24" height="24" viewBox="0 0 24 24" fill="none" xmlns="http://www.w3.org/2000/svg">
<g id="Iconly/Curved/Image">
<g id="Image">
<path id="Stroke 1" d="M6.07059 16.459C6.07059 16.459 6.88259 14.822 8.06459 14.822C9.24659 14.822 9.85059 16.197 11.1606 16.197C12.4696 16.197 13.9386 12.749 15.4226 12.749C16.9046 12.749 17.9706 15.14 17.9706 15.14" stroke="#130F26" stroke-width="1.5" stroke-linecap="round" stroke-linejoin="round"/>
<path id="Stroke 3" fill-rule="evenodd" clip-rule="evenodd" d="M10.1393 9.1049C10.1393 9.9649 9.4423 10.6629 8.5813 10.6629C7.7213 10.6629 7.0243 9.9649 7.0243 9.1049C7.0243 8.2449 7.7213 7.5469 8.5813 7.5469C9.4423 7.5479 10.1393 8.2449 10.1393 9.1049Z" stroke="#130F26" stroke-width="1.5" stroke-linecap="round" stroke-linejoin="round"/>
<path id="Stroke 5" fill-rule="evenodd" clip-rule="evenodd" d="M2.7503 12.0001C2.7503 18.9371 5.0633 21.2501 12.0003 21.2501C18.9373 21.2501 21.2503 18.9371 21.2503 12.0001C21.2503 5.0631 18.9373 2.7501 12.0003 2.7501C5.0633 2.7501 2.7503 5.0631 2.7503 12.0001Z" stroke="#130F26" stroke-width="1.5" stroke-linecap="round" stroke-linejoin="round"/>
</g>
</g>
</svg>
