<svg width="35" height="40" viewBox="0 0 35 40" fill="none" xmlns="http://www.w3.org/2000/svg">
<rect x="0.5" y="0.5" width="34" height="21.8571" rx="3.5" fill="white" stroke="#D9D9D9"/>
<path fill-rule="evenodd" clip-rule="evenodd" d="M17.75 16.34C16.5584 17.3193 15.0128 17.9105 13.3238 17.9105C9.55511 17.9105 6.5 14.9671 6.5 11.3362C6.5 7.70536 9.55511 4.76196 13.3238 4.76196C15.0128 4.76196 16.5584 5.35316 17.75 6.33247C18.9416 5.35316 20.4872 4.76196 22.1762 4.76196C25.9449 4.76196 29 7.70536 29 11.3362C29 14.9671 25.9449 17.9105 22.1762 17.9105C20.4872 17.9105 18.9416 17.3193 17.75 16.34Z" fill="#ED0006"/>
<path fill-rule="evenodd" clip-rule="evenodd" d="M17.75 16.34C19.2172 15.1342 20.1475 13.3399 20.1475 11.3362C20.1475 9.3326 19.2172 7.53831 17.75 6.33247C18.9416 5.35316 20.4872 4.76196 22.1762 4.76196C25.9449 4.76196 29 7.70536 29 11.3362C29 14.9671 25.9449 17.9105 22.1762 17.9105C20.4872 17.9105 18.9416 17.3193 17.75 16.34Z" fill="#F9A000"/>
<path fill-rule="evenodd" clip-rule="evenodd" d="M17.75 16.34C16.2829 15.1342 15.3525 13.3399 15.3525 11.3363C15.3525 9.33264 16.2829 7.53836 17.75 6.33252C19.2172 7.53836 20.1476 9.33264 20.1476 11.3363C20.1476 13.3399 19.2172 15.1342 17.75 16.34Z" fill="#FF5E00"/>
<rect x="0.5" y="9.07141" width="34" height="21.8571" rx="3.5" fill="white" stroke="#D9D9D9"/>
<path fill-rule="evenodd" clip-rule="evenodd" d="M9.90001 23.0867H8.34439C8.23794 23.0867 8.1474 23.1604 8.1308 23.2604L7.50163 27.0595C7.48913 27.1345 7.55009 27.2021 7.62993 27.2021H8.37259C8.47905 27.2021 8.56958 27.1284 8.58618 27.0281L8.75588 26.0035C8.77225 25.9031 8.863 25.8295 8.96924 25.8295H9.46169C10.4864 25.8295 11.0778 25.3573 11.2323 24.4214C11.3019 24.012 11.2353 23.6903 11.0339 23.4649C10.8129 23.2176 10.4206 23.0867 9.90001 23.0867ZM10.0795 24.4742C9.99443 25.0059 9.56792 25.0059 9.15553 25.0059H8.92078L9.08547 24.013C9.09525 23.953 9.14984 23.9088 9.21353 23.9088H9.32112C9.60204 23.9088 9.86706 23.9088 10.004 24.0613C10.0856 24.1523 10.1106 24.2875 10.0795 24.4742ZM14.5501 24.4572H13.8052C13.7417 24.4572 13.6869 24.5014 13.6771 24.5615L13.6441 24.7599L13.592 24.688C13.4308 24.465 13.0712 24.3905 12.7122 24.3905C11.889 24.3905 11.1859 24.9843 11.049 25.8173C10.9778 26.2327 11.079 26.63 11.3264 26.9071C11.5535 27.1619 11.8783 27.268 12.2647 27.268C12.928 27.268 13.2959 26.8618 13.2959 26.8618L13.2626 27.059C13.2501 27.1344 13.3111 27.202 13.3904 27.202H14.0615C14.1682 27.202 14.2582 27.1283 14.2751 27.028L14.6777 24.5998C14.6904 24.5251 14.6297 24.4572 14.5501 24.4572ZM13.5117 25.8381C13.4398 26.2434 13.102 26.5155 12.6713 26.5155C12.455 26.5155 12.282 26.4494 12.1711 26.3242C12.061 26.1999 12.0191 26.0228 12.0541 25.8257C12.1213 25.4238 12.4647 25.1429 12.889 25.1429C13.1004 25.1429 13.2724 25.2098 13.3857 25.3361C13.4992 25.4637 13.5442 25.6418 13.5117 25.8381ZM17.769 24.4571H18.5176C18.6224 24.4571 18.6836 24.5691 18.624 24.651L16.1342 28.0737C16.0939 28.1292 16.0275 28.1622 15.9565 28.1622H15.2089C15.1036 28.1622 15.0421 28.0493 15.1031 27.9672L15.8783 26.925L15.0538 24.6204C15.0253 24.5403 15.0874 24.4571 15.1769 24.4571H15.9124C16.008 24.4571 16.0923 24.5168 16.1199 24.604L16.5575 25.9958L17.59 24.5474C17.6304 24.4909 17.6976 24.4571 17.769 24.4571Z" fill="#253B80"/>
<path fill-rule="evenodd" clip-rule="evenodd" d="M25.8854 27.0595L26.5238 23.1909C26.5336 23.1308 26.5882 23.0866 26.6517 23.0864H27.3705C27.4498 23.0864 27.5108 23.1542 27.4982 23.2292L26.8687 27.0281C26.8522 27.1283 26.7617 27.202 26.6551 27.202H26.0132C25.9338 27.202 25.8729 27.1345 25.8854 27.0595ZM20.996 23.0866H19.4401C19.3339 23.0866 19.2434 23.1603 19.2267 23.2604L18.5976 27.0595C18.5851 27.1345 18.646 27.202 18.7255 27.202H19.5238C19.598 27.202 19.6615 27.1505 19.6731 27.0803L19.8516 26.0034C19.868 25.9031 19.9587 25.8295 20.065 25.8295H20.5572C21.5821 25.8295 22.1734 25.3572 22.328 24.4214C22.3978 24.0119 22.3308 23.6902 22.1295 23.4649C21.9085 23.2176 21.5166 23.0866 20.996 23.0866ZM21.1755 24.4742C21.0906 25.0058 20.6641 25.0058 20.2515 25.0058H20.017L20.1819 24.0129C20.1917 23.953 20.2458 23.9088 20.3097 23.9088H20.4173C20.698 23.9088 20.9633 23.9088 21.1001 24.0613C21.1818 24.1523 21.2066 24.2874 21.1755 24.4742ZM25.6457 24.4572H24.9013C24.8373 24.4572 24.783 24.5014 24.7734 24.5614L24.7404 24.7598L24.6881 24.6879C24.5269 24.465 24.1675 24.3905 23.8085 24.3905C22.9853 24.3905 22.2824 24.9843 22.1455 25.8173C22.0745 26.2327 22.1753 26.63 22.4228 26.9071C22.6502 27.1618 22.9746 27.268 23.3611 27.268C24.0243 27.268 24.3921 26.8618 24.3921 26.8618L24.359 27.059C24.3464 27.1344 24.4074 27.2019 24.4873 27.2019H25.158C25.2642 27.2019 25.3548 27.1282 25.3714 27.028L25.7742 24.5997C25.7865 24.525 25.7256 24.4572 25.6457 24.4572ZM24.6074 25.838C24.5359 26.2433 24.1977 26.5154 23.7669 26.5154C23.551 26.5154 23.3777 26.4493 23.2666 26.3241C23.1565 26.1998 23.1152 26.0228 23.1498 25.8257C23.2173 25.4238 23.5603 25.1429 23.9845 25.1429C24.1961 25.1429 24.368 25.2097 24.4814 25.3361C24.5953 25.4637 24.6403 25.6417 24.6074 25.838Z" fill="#179BD7"/>
<path d="M15.657 21.7275L15.8483 20.5706L15.4223 20.5612H13.3881L14.8017 12.0242C14.8061 11.9985 14.8204 11.9744 14.8412 11.9574C14.8621 11.9403 14.8888 11.9309 14.9166 11.9309H18.3466C19.4853 11.9309 20.2711 12.1566 20.6814 12.602C20.8738 12.811 20.9963 13.0293 21.0556 13.2696C21.1177 13.5218 21.1188 13.823 21.0581 14.1904L21.0537 14.2173V14.4527L21.2461 14.5565C21.4081 14.6383 21.5367 14.732 21.6354 14.8393C21.8001 15.0179 21.9065 15.245 21.9515 15.5142C21.9979 15.7911 21.9825 16.1205 21.9065 16.4935C21.8187 16.9226 21.6768 17.2963 21.4852 17.602C21.3089 17.8838 21.0844 18.1174 20.8179 18.2986C20.5633 18.4706 20.2609 18.6012 19.919 18.6848C19.5877 18.7669 19.21 18.8084 18.7957 18.8084H18.5287C18.3379 18.8084 18.1524 18.8739 18.0069 18.9913C17.861 19.1111 17.7644 19.2747 17.7348 19.4538L17.7147 19.5579L17.3768 21.5969L17.3614 21.6718C17.3574 21.6956 17.3505 21.7074 17.3403 21.7154C17.3311 21.7226 17.318 21.7275 17.3051 21.7275H15.657Z" fill="#253B80"/>
<path d="M21.4281 14.2445C21.4179 14.3068 21.4062 14.3706 21.3931 14.436C20.9407 16.6479 19.3932 17.412 17.4166 17.412H16.4103C16.1686 17.412 15.965 17.5791 15.9273 17.8062L15.412 20.9183L15.2661 21.8004C15.2416 21.9495 15.3623 22.0839 15.5202 22.0839H17.3052C17.5165 22.0839 17.696 21.9377 17.7293 21.7392L17.7469 21.6527L18.083 19.6217L18.1045 19.5103C18.1374 19.3111 18.3173 19.1648 18.5286 19.1648H18.7956C20.5249 19.1648 21.8787 18.4961 22.2743 16.5612C22.4396 15.7528 22.354 15.0779 21.9167 14.6032C21.7843 14.4601 21.6201 14.3413 21.4281 14.2445Z" fill="#179BD7"/>
<path d="M20.9548 14.065C20.8858 14.0459 20.8144 14.0285 20.7412 14.0128C20.6678 13.9975 20.5924 13.9839 20.5149 13.972C20.2436 13.9303 19.9463 13.9104 19.6278 13.9104H16.9393C16.8731 13.9104 16.8103 13.9247 16.754 13.9505C16.63 14.0072 16.5379 14.119 16.5155 14.2559L15.9435 17.7058L15.9271 17.8064C15.9648 17.5794 16.1685 17.4122 16.4102 17.4122H17.4165C19.393 17.4122 20.9406 16.6477 21.3929 14.4363C21.4064 14.3708 21.4178 14.3071 21.428 14.2447C21.3136 14.1869 21.1896 14.1375 21.0561 14.0953C21.0232 14.0849 20.9892 14.0748 20.9548 14.065Z" fill="#222D65"/>
<path d="M16.5156 14.2557C16.5379 14.1189 16.6301 14.0071 16.754 13.9507C16.8107 13.9249 16.8733 13.9106 16.9394 13.9106H19.6279C19.9464 13.9106 20.2437 13.9305 20.5149 13.9723C20.5925 13.9841 20.6679 13.9977 20.7414 14.013C20.8145 14.0287 20.8858 14.0461 20.9549 14.0652C20.9893 14.075 21.0233 14.0851 21.0565 14.0952C21.19 14.1373 21.314 14.1871 21.4284 14.2446C21.5631 13.4272 21.4274 12.8707 20.9634 12.3668C20.4518 11.812 19.5284 11.5745 18.3469 11.5745H14.9168C14.6755 11.5745 14.4697 11.7416 14.4323 11.969L13.0037 20.5938C12.9755 20.7644 13.1137 20.9184 13.2943 20.9184H15.412L15.9437 17.7056L16.5156 14.2557Z" fill="#253B80"/>
<rect x="0.5" y="17.6428" width="34" height="21.8571" rx="3.5" fill="white" stroke="#D9D9D9"/>
<path fill-rule="evenodd" clip-rule="evenodd" d="M10.6253 32.6268H8.50494L6.91495 26.8498C6.83949 26.5841 6.67925 26.3491 6.44354 26.2384C5.85531 25.9602 5.20712 25.7387 4.5 25.627V25.4046H7.91567C8.38708 25.4046 8.74064 25.7387 8.79957 26.1267L9.62454 30.2939L11.7438 25.4046H13.8052L10.6253 32.6268ZM14.9838 32.6268H12.9813L14.6302 25.4046H16.6327L14.9838 32.6268ZM19.2234 27.4054C19.2823 27.0164 19.6359 26.794 20.0483 26.794C20.6965 26.7381 21.4026 26.8498 21.9919 27.1271L22.3454 25.5721C21.7562 25.3497 21.108 25.238 20.5198 25.238C18.5762 25.238 17.162 26.2384 17.162 27.6268C17.162 28.6831 18.1637 29.2377 18.8708 29.5718C19.6359 29.9049 19.9305 30.1273 19.8716 30.4605C19.8716 30.9602 19.2823 31.1826 18.6941 31.1826C17.9869 31.1826 17.2798 31.016 16.6327 30.7378L16.2791 32.2937C16.9862 32.571 17.7512 32.6827 18.4584 32.6827C20.6376 32.7376 21.9919 31.7382 21.9919 30.238C21.9919 28.349 19.2234 28.2382 19.2234 27.4054ZM29 32.6268L27.41 25.4046H25.7022C25.3486 25.4046 24.9951 25.627 24.8772 25.9602L21.9329 32.6268H23.9943L24.4058 31.5716H26.9386L27.1743 32.6268H29ZM25.9968 27.3495L26.585 30.0715H24.9361L25.9968 27.3495Z" fill="#172B85"/>
</svg>
